<svg id="Layer_1" data-name="Layer 1" xmlns="http://www.w3.org/2000/svg" viewBox="0 0 4054 516.04"><defs><style>.cls-1{isolation:isolate;}.cls-2{fill:#089146;}.cls-3{fill:none;}</style></defs><title>closebrace_logo_tm</title><g id="CloseBrace"><g class="cls-1"><path class="cls-2" d="M870.5,444.69a249.49,249.49,0,0,1-96.39,19q-81.15,0-124.66-48.49T606,271.83q0-46,12-83.2t34.28-63.13a150.89,150.89,0,0,1,53.91-40Q737.79,71.44,777,71.44A254.3,254.3,0,0,1,826.56,76,207.65,207.65,0,0,1,870.5,89.9v51.27a194.54,194.54,0,0,0-43.07-17.43,186.49,186.49,0,0,0-48.63-6q-27,0-48.78,10.11A100.92,100.92,0,0,0,693,157.14Q677.73,176.33,669.53,204t-8.2,63.13q0,74.42,30.18,112.21T780,417.15a191.45,191.45,0,0,0,47.17-5.71,219.78,219.78,0,0,0,43.36-16Z"/><path class="cls-2" d="M1197.46,459H977.14V76.13h53V414.51h167.29Z"/><path class="cls-2" d="M1552.54,265.1q0,51.57-12.16,89.06t-32.81,62q-20.65,24.47-48.34,36.33a146.82,146.82,0,0,1-58.45,11.87q-36.91,0-64.31-13.33a119.15,119.15,0,0,1-45.41-38.53q-18-25.19-26.81-61.38t-8.79-81.59q0-51,12-88.48t32.67-62q20.65-24.46,48.19-36.33a145.77,145.77,0,0,1,58.3-11.87q36.91,0,64.31,13.48a122.2,122.2,0,0,1,45.56,38.53q18.16,25,27.1,61.08T1552.54,265.1Zm-54.2,3.81a343.37,343.37,0,0,0-5.13-61.67q-5.13-28-16.55-48.19t-29.44-31.35q-18-11.13-43.51-11.13-24.61,0-42.33,11.87t-29.15,32.23q-11.43,20.37-17,47.75a291.54,291.54,0,0,0-5.57,58.15q0,34,5.27,62t16.55,48q11.27,20.07,29.15,31.2t43.07,11.13q24.61,0,42.48-11.87t29.44-32.23q11.57-20.36,17.14-47.61A291.23,291.23,0,0,0,1498.34,268.91Z"/><path class="cls-2" d="M1860.74,355.33q0,27.25-11.13,47.75a97,97,0,0,1-31.05,34.13q-19.93,13.62-47.9,20.36T1709,464.32q-15.24,0-30.32-1.17t-29-2.93q-13.92-1.76-26.22-4.1t-22.27-5V400.74a272.44,272.44,0,0,0,49.37,12.89q27.39,4.69,62.26,4.69,25.19,0,42.92-4t29-11.72a46.5,46.5,0,0,0,16.41-18.9,60.33,60.33,0,0,0,5.13-25.49q0-15.52-8.64-26.51a85.28,85.28,0,0,0-22.71-19.63,209.42,209.42,0,0,0-32.08-15.82q-18-7.17-36.77-14.79T1669.28,265a151.87,151.87,0,0,1-32.08-21.09,97.41,97.41,0,0,1-22.71-28.56q-8.65-16.4-8.64-39a96.91,96.91,0,0,1,8.2-38.67q8.2-19,25.49-33.84t44.38-23.88q27.1-9.08,64.6-9.08,9.67,0,20.95.88t22.85,2.49q11.57,1.61,22.85,3.66t20.95,4.39v46.88a356,356,0,0,0-45.12-9.81,296,296,0,0,0-43.65-3.37q-44.82,0-65.92,14.94t-21.09,40.14q0,15.53,8.64,26.66a85.91,85.91,0,0,0,22.71,19.92,200.26,200.26,0,0,0,32.08,16q18,7.18,36.77,14.79t36.77,16.7a150,150,0,0,1,32.08,21.53,100.06,100.06,0,0,1,22.71,29.15Q1860.73,332.48,1860.74,355.33Z"/><path class="cls-2" d="M2175.09,459H1957.42V76.13h217.68v43.95H2009.57V238.73h159.08v43.95H2009.57V414.51h165.53Z"/><path class="cls-2" d="M2526.07,344.49q0,27.54-10.69,48.78a100.41,100.41,0,0,1-30.47,35.89q-19.78,14.65-47.75,22.27T2374.9,459H2274.7V76.13h109.57q128,0,128,93.16,0,31.06-14.79,53.32t-48.19,33.11a110.41,110.41,0,0,1,29.44,10,88.3,88.3,0,0,1,24.46,18.16,83.23,83.23,0,0,1,16.7,26.37Q2526.07,325.45,2526.07,344.49Zm-68-168.16a68.64,68.64,0,0,0-3.52-22.12,40,40,0,0,0-12.3-17.87q-8.79-7.47-23.73-11.87t-37.79-4.39h-53.91V239.9H2379a127.41,127.41,0,0,0,32.37-3.81,70,70,0,0,0,24.9-11.72,53.85,53.85,0,0,0,16.11-19.78Q2458.1,192.73,2458.1,176.33Zm12.6,169.92a55.86,55.86,0,0,0-6.15-26.37,54.82,54.82,0,0,0-17.87-19.78q-11.72-8.05-28.56-12.45a150.53,150.53,0,0,0-37.94-4.39h-53.32V415.1h55.08q44.82,0,66.8-16.7T2470.7,346.25Z"/><path class="cls-2" d="M2866.21,459h-58.89l-57.13-122.46A135.67,135.67,0,0,0,2737,313.29a62.79,62.79,0,0,0-14.5-14.65,51.77,51.77,0,0,0-17-7.76,84.09,84.09,0,0,0-20.65-2.34h-24.61V459H2608.1V76.13h102.54q33.4,0,57.42,7.32t39.4,20.51A78.57,78.57,0,0,1,2830,135.75q7.17,18.61,7.18,41.16a107.19,107.19,0,0,1-5.27,33.84,92.79,92.79,0,0,1-15.67,29,99.67,99.67,0,0,1-25.78,22.56,117.72,117.72,0,0,1-35.3,14.21A60.07,60.07,0,0,1,2782.56,296q11.27,13.92,23,37.06Zm-83.5-277.73q0-30.76-19.19-46t-54.05-15.23h-49.22V246.64h42.19a120.38,120.38,0,0,0,33.25-4.25,71,71,0,0,0,25.2-12.6A57.09,57.09,0,0,0,2777,209.29Q2782.71,197.13,2782.71,181.31Z"/><path class="cls-2" d="M3215.13,459H3158.3l-26.66-83.5H2972.26l-27,83.5h-54.2L3018.26,76.13h71.48ZM3116.7,329l-64.75-204.79L2987.2,329Z"/><path class="cls-2" d="M3509.57,444.69a249.49,249.49,0,0,1-96.39,19q-81.16,0-124.66-48.49T3245,271.83q0-46,12-83.2t34.28-63.13a150.89,150.89,0,0,1,53.91-40q31.64-14.06,70.9-14.06A254.3,254.3,0,0,1,3465.62,76a207.65,207.65,0,0,1,43.95,13.92v51.27a194.54,194.54,0,0,0-43.07-17.43,186.49,186.49,0,0,0-48.63-6q-27,0-48.78,10.11a100.91,100.91,0,0,0-37.06,29.3q-15.24,19.19-23.44,46.88t-8.2,63.13q0,74.42,30.18,112.21T3419,417.15a191.45,191.45,0,0,0,47.17-5.71,219.79,219.79,0,0,0,43.36-16Z"/><path class="cls-2" d="M3824.51,459H3606.83V76.13h217.68v43.95H3659V238.73h159.08v43.95H3659V414.51h165.53Z"/></g></g><rect class="cls-3" x="3853" y="0.38" width="201" height="126"/><path class="cls-2" d="M3912.94,8.91h-22.68V76.58h-10.55V8.91H3857V0h55.9Z"/><path class="cls-2" d="M3981.08,76.58h-10.2l-1.52-47.75-.64-18.34-3.57,10.66-11.31,30.47h-7.21l-10.78-29.3-3.57-11.84L3932,29.65l-1.35,46.93h-9.84L3924.6,0H3937l10.31,28.83,3.34,9.73,3.22-9.73L3964.68,0h12.71Z"/><path class="cls-2" d="M156,455.23c0-17.52-2.92-34.31-5.11-52.56-2.92-17.52-5.84-35.77-5.84-55.48,0-46.72,20.44-71.54,52.56-79.57v-1.46c-32.12-8.76-52.56-32.12-52.56-78.84,0-19.71,2.92-37.23,5.84-55.48C153.12,114.32,156,96.8,156,80c0-31.86-10-52.74-36.22-60H78A78.23,78.23,0,0,0,0,98V438a78.23,78.23,0,0,0,78,78h40.45C144.54,509,156,488.34,156,455.23Z"/><path class="cls-2" d="M418,20H193.76c8.14,13.86,12.66,31.31,12.66,52.67,0,20.44-2.92,40.15-5.84,60.59s-5.84,40.88-5.84,61.32c0,25.55,7.3,54,59.13,54v37.23c-51.83,0-59.13,31.39-59.13,54,0,19.71,2.92,39.42,5.84,59.13s5.84,40.15,5.84,59.86c0,23.74-4.77,42.55-13.24,57.16H418a78.23,78.23,0,0,0,78-78V98A78.23,78.23,0,0,0,418,20Z"/></svg>